HIERARCHY
ROOT Hips
{
	OFFSET 0.000000 0.000000 0.000000 
	CHANNELS 6 Xposition Yposition Zposition Zrotation Yrotation Xrotation
	JOINT LeftUpLeg
	{
		OFFSET 1.363060 -1.794630 0.839290 
		CHANNELS 3 Zrotation Yrotation Xrotation
		JOINT LeftLeg
		{
			OFFSET 2.448110 -6.726130 0.000000 
			CHANNELS 3 Zrotation Yrotation Xrotation
			JOINT LeftFoot
			{
				OFFSET 2.562200 -7.039590 0.000000 
				CHANNELS 3 Zrotation Yrotation Xrotation
				JOINT LeftToeBase
				{
					OFFSET 0.157640 -0.433110 2.322550 
					CHANNELS 3 Zrotation Yrotation Xrotation
					End Site
					{
						OFFSET 0.000000 0.000000 0.000000 
					}
				}
			}
		}
	}
	JOINT RightUpLeg
	{
		OFFSET -1.305520 -1.794630 0.839290 
		CHANNELS 3 Zrotation Yrotation Xrotation
		JOINT RightLeg
		{
			OFFSET -2.542530 -6.985550 0.000000 
			CHANNELS 3 Zrotation Yrotation Xrotation
			JOINT RightFoot
			{
				OFFSET -2.568260 -7.056230 0.000000 
				CHANNELS 3 Zrotation Yrotation Xrotation
				JOINT RightToeBase
				{
					OFFSET -0.164730 -0.452590 2.363150 
					CHANNELS 3 Zrotation Yrotation Xrotation
					End Site
					{
						OFFSET 0.000000 0.000000 0.000000 
					}
				}
			}
		}
	}
	JOINT Spine
	{
		OFFSET 0.028270 2.035590 -0.193380 
		CHANNELS 3 Zrotation Yrotation Xrotation
		JOINT Spine1
		{
			OFFSET 0.056720 2.048850 -0.042750 
			CHANNELS 3 Zrotation Yrotation Xrotation
			JOINT Neck1
			{
				OFFSET -0.054170 1.746240 0.172020 
				CHANNELS 3 Zrotation Yrotation Xrotation
				JOINT Head
				{
					OFFSET 0.104070 1.761360 -0.123970 
					CHANNELS 3 Zrotation Yrotation Xrotation
					End Site
					{
						OFFSET 0.000000 0.000000 0.000000 
					}
				}
			}
			JOINT LeftArm
			{
				OFFSET 3.362410 1.200890 -0.311210 
				CHANNELS 3 Zrotation Yrotation Xrotation
				JOINT LeftForeArm
				{
					OFFSET 4.983000 -0.000000 -0.000000 
					CHANNELS 3 Zrotation Yrotation Xrotation
					JOINT LeftHand
					{
						OFFSET 3.483560 -0.000000 -0.000000 
						CHANNELS 3 Zrotation Yrotation Xrotation
						JOINT LeftHandIndex1
						{
							OFFSET 0.715260 -0.000000 -0.000000 
							CHANNELS 3 Zrotation Yrotation Xrotation
							End Site
							{
								OFFSET 0.000000 0.000000 0.000000 
							}
						}
					}
				}
			}
			JOINT RightArm
			{
				OFFSET -3.136600 1.374050 -0.404650 
				CHANNELS 3 Zrotation Yrotation Xrotation
				JOINT RightForeArm
				{
					OFFSET -5.241900 -0.000000 -0.000000 
					CHANNELS 3 Zrotation Yrotation Xrotation
					JOINT RightHand
					{
						OFFSET -3.444170 -0.000000 -0.000000 
						CHANNELS 3 Zrotation Yrotation Xrotation
						JOINT RightHandIndex1
						{
							OFFSET -0.622530 -0.000000 -0.000000 
							CHANNELS 3 Zrotation Yrotation Xrotation
							End Site
							{
								OFFSET 0.000000 0.000000 0.000000 
							}
						}
					}
				}
			}
		}
	}
}
MOTION
Frames: 16
Frame Time: 0.041667
0.569217 18.153725 4.354437 -117.401609 -79.271716 116.652283 1.682119 -4.243839 -52.951095 10.251023 18.133572 59.045592 -138.464043 -13.365108 -165.994118 0.000700 -0.174800 -0.480200 32.890602 7.328555 -8.210918 -0.637646 -8.685941 23.090326 0.670334 -5.391438 2.208733 -1.059800 -6.545300 18.375000 1.767871 1.988425 -4.932336 3.189848 0.576487 -2.905019 5.025711 -4.266493 10.316381 1.916700 -1.940000 9.351900 -75.805692 24.513350 41.689683 28.120965 -44.744291 -9.478136 -0.214412 1.050412 3.533698 -7.125000 0.000000 0.000000 88.512411 28.172603 53.173275 -69.190724 59.560163 -45.093994 -0.474486 0.581751 -6.950592 7.125000 0.000000 0.000000 
0.427901 18.190219 4.354943 -119.200942 -79.005360 118.194511 1.917267 -4.402779 -55.723940 9.749642 17.874531 57.455135 -138.348728 -13.754568 -166.440326 0.000200 -0.100900 -0.277300 33.119281 7.270668 -7.125853 -0.565957 -8.505868 22.567249 0.673032 -5.400743 2.100213 -1.047700 -6.509200 18.269200 1.694405 2.336779 -4.903879 2.828025 0.744998 -2.903805 5.076516 -4.428601 10.357956 1.930300 -2.008400 9.388200 -75.035218 25.648062 41.417453 28.846934 -45.291742 -9.920961 -0.211075 1.024954 2.922589 -7.125000 0.000000 0.000000 88.323532 29.729546 53.161598 -69.837328 59.647829 -45.635911 -0.475071 0.576047 -7.194579 7.125000 0.000000 0.000000 
0.285572 18.224180 4.356363 -120.808864 -78.770436 119.590639 2.149049 -4.645993 -58.473755 9.333611 17.652524 56.127327 -138.256662 -14.083923 -166.792805 0.000000 -0.045100 -0.123800 33.296187 7.188654 -6.135745 -0.503205 -8.341855 22.093574 0.682158 -5.435969 1.976524 -1.038800 -6.482100 18.189900 1.623409 2.658504 -4.893312 2.485733 0.900486 -2.944203 5.120025 -4.576238 10.391033 1.945900 -2.073200 9.410900 -74.288188 26.775016 41.147347 29.534205 -45.797756 -10.349886 -0.206686 0.999313 2.411678 -7.125000 0.000000 0.000000 88.083058 31.174496 53.110755 -70.283749 59.695095 -46.006357 -0.475657 0.570928 -7.479585 7.125000 0.000000 0.000000 
0.142026 18.255302 4.358694 -122.121749 -78.568790 120.745901 2.406735 -4.992098 -61.204493 8.992233 17.469246 55.033880 -138.187345 -14.356945 -167.053223 0.000000 -0.001900 -0.005200 33.432586 7.039265 -5.264546 -0.448440 -8.193507 21.667486 0.694730 -5.485099 1.842262 -1.034700 -6.469900 18.154100 1.558421 2.943949 -4.894099 2.165312 1.038327 -2.996685 5.140943 -4.702619 10.423846 1.955000 -2.131500 9.431300 -73.583436 27.852943 40.871675 30.164415 -46.251161 -10.752221 -0.202547 0.973837 2.009549 -7.125000 0.000000 0.000000 87.789233 32.539504 53.026370 -70.549506 59.708179 -46.222341 -0.476071 0.566300 -7.769622 7.125000 0.000000 0.000000 
-0.002534 18.283991 4.361736 -123.133036 -78.397048 121.645440 2.705863 -5.430490 -63.899221 8.721264 17.326414 54.163569 -138.133020 -14.602566 -167.242384 0.000000 0.036700 0.100700 33.541590 6.801744 -4.507749 -0.400376 -8.057715 21.278622 0.712831 -5.558343 1.701825 -1.033800 -6.467000 18.145700 1.500994 3.196103 -4.904590 1.868851 1.159495 -3.060523 5.139161 -4.812261 10.457546 1.956800 -2.185200 9.450600 -72.920674 28.880430 40.599529 30.742372 -46.658260 -11.126758 -0.204990 0.950647 1.698580 -7.125000 0.000000 0.000000 87.435637 33.826600 52.905814 -70.651278 59.691209 -46.298935 -0.475974 0.562686 -8.004660 7.125000 0.000000 0.000000 
-0.148412 18.310145 4.365385 -123.919692 -78.247906 122.353852 3.048979 -5.930936 -66.531085 8.518515 17.224360 53.508899 -138.087124 -14.851450 -167.363432 0.000200 0.094600 0.260000 33.630579 6.475455 -3.848017 -0.358283 -7.933215 20.923138 0.736229 -5.654688 1.558079 -1.035700 -6.473000 18.163100 1.451636 3.419980 -4.921370 1.601967 1.266472 -3.128873 5.125875 -4.906034 10.488143 1.956800 -2.233800 9.465600 -72.308167 29.849034 40.327582 31.256519 -47.013478 -11.466046 -0.211509 0.929634 1.466137 -7.125000 0.000000 0.000000 87.029685 35.031401 52.751852 -70.617793 59.650470 -46.261146 -0.475259 0.560254 -8.147908 7.125000 0.000000 0.000000 
-0.295202 18.334171 4.369339 -124.552796 -78.121648 122.926531 3.422405 -6.465329 -69.063101 8.380098 17.161869 53.059043 -138.041409 -15.124620 -167.447283 0.000700 0.175300 0.481500 33.699068 6.069675 -3.259433 -0.321799 -7.819730 20.599640 0.765224 -5.776295 1.414442 -1.033400 -6.466000 18.142600 1.410423 3.618414 -4.942011 1.371736 1.360594 -3.205866 5.105192 -4.983602 10.522190 1.956700 -2.276600 9.483200 -71.759574 30.754062 40.047924 31.698536 -47.313297 -11.762494 -0.224190 0.911685 1.282802 -7.125000 0.000000 0.000000 86.577722 36.155640 52.574587 -70.480785 59.591739 -46.136174 -0.473827 0.558900 -8.192964 7.125000 0.000000 0.000000 
-0.442499 18.356271 4.372988 -125.115650 -78.016557 123.424982 3.803930 -7.000933 -71.450060 8.305946 17.139036 52.814845 -137.988229 -15.442274 -167.523352 0.001800 0.271700 0.746600 33.747785 5.616863 -2.708748 -0.290994 -7.718100 20.310618 0.798732 -5.917930 1.267493 -1.029600 -6.454400 18.108600 1.376937 3.796567 -4.963179 1.185668 1.444710 -3.292132 5.079307 -5.048088 10.558930 1.956300 -2.314400 9.505200 -71.284406 31.589201 39.751559 32.068234 -47.559917 -12.015229 -0.240846 0.896708 1.154760 -7.125000 0.000000 0.000000 86.091057 37.199635 52.378592 -70.271352 59.520363 -45.950631 -0.471881 0.558489 -8.140144 7.125000 0.000000 0.000000 
-0.590405 18.376545 4.376232 -125.675801 -77.931907 123.906637 4.166400 -7.511296 -73.658904 8.289360 17.151330 52.756827 -137.924149 -15.800939 -167.618444 0.003400 0.379000 1.041300 33.772717 5.150252 -2.160971 -0.265216 -7.627721 20.054148 0.834145 -6.066619 1.115823 -1.020400 -6.426400 18.026700 1.349959 3.958420 -4.981501 1.044957 1.521243 -3.383085 5.051382 -5.098004 10.593906 1.956100 -2.345900 9.529000 -70.883920 32.354473 39.441164 32.368059 -47.757639 -12.226561 -0.255729 0.884294 1.060731 -7.125000 0.000000 0.000000 85.582968 38.158305 52.166673 -70.021363 59.442606 -45.731761 -0.469587 0.558885 -8.017992 7.125000 0.000000 0.000000 
-0.737600 18.394692 4.378868 -126.206160 -77.865549 124.341845 4.503496 -7.989188 -75.678710 8.320837 17.192536 52.854695 -137.847983 -16.192988 -167.754933 0.005400 0.473400 1.300700 33.782266 4.698852 -1.613070 -0.245556 -7.551902 19.840787 0.868083 -6.208301 0.964749 -0.999300 -6.361700 17.837400 1.330048 4.102075 -4.996758 0.949606 1.589196 -3.481434 5.020174 -5.134153 10.626509 1.953800 -2.370900 9.555600 -70.563640 33.036295 39.113802 32.594090 -47.904156 -12.393349 -0.265499 0.873182 0.995271 -7.125000 0.000000 0.000000 85.070002 39.030317 51.945164 -69.759310 59.363408 -45.503814 -0.467326 0.559808 -7.857560 7.125000 0.000000 0.000000 
-0.884695 18.410607 4.380997 -126.729207 -77.810673 124.752834 4.800824 -8.419249 -77.492389 8.394217 17.257978 53.090343 -137.762662 -16.595560 -167.939955 0.006900 0.535800 1.472400 33.776023 4.278294 -1.052093 -0.231283 -7.490354 19.670124 0.894365 -6.315531 0.815142 -0.968600 -6.265800 17.557500 1.315268 4.233917 -5.005768 0.889919 1.652274 -3.571637 4.986555 -5.159979 10.650637 1.948200 -2.390600 9.580200 -70.311649 33.629852 38.777676 32.755271 -48.007393 -12.520413 -0.271535 0.864611 0.947154 -7.125000 0.000000 0.000000 84.555416 39.807477 51.702009 -69.510643 59.288593 -45.288936 -0.465325 0.561400 -7.682496 7.125000 0.000000 0.000000 
-1.031789 18.423989 4.382720 -127.245896 -77.753136 125.147545 5.062283 -8.791924 -79.098314 8.504025 17.342638 53.443916 -137.672187 -16.998850 -168.153580 0.007100 0.545600 1.499300 33.764192 3.897887 -0.480063 -0.222354 -7.443753 19.544982 0.907268 -6.363816 0.673165 -0.927500 -6.135400 17.177700 1.306234 4.352293 -5.007323 0.860290 1.709884 -3.641658 4.956730 -5.172042 10.662270 1.943800 -2.402800 9.599900 -70.137123 34.138365 38.419693 32.858546 -48.073317 -12.612129 -0.271950 0.857593 0.903612 -7.125000 0.000000 0.000000 84.060205 40.489005 51.450373 -69.293179 59.222415 -45.101882 -0.463588 0.563074 -7.513953 7.125000 0.000000 0.000000 
-1.179086 18.434734 4.384139 -127.759039 -77.685749 125.537630 5.287265 -9.103936 -80.498611 8.645772 17.442796 53.900970 -137.582713 -17.373712 -168.391688 0.005600 0.481800 1.324000 33.748208 3.561464 0.093996 -0.218904 -7.412663 19.466531 0.905117 -6.346107 0.546592 -0.875800 -5.966300 16.686700 1.301873 4.460418 -5.002435 0.851936 1.763331 -3.689031 4.928791 -5.173051 10.664963 1.939000 -2.408800 9.616100 -70.033104 34.564677 38.045689 32.914150 -48.108884 -12.672621 -0.271742 0.852353 0.860095 -7.125000 0.000000 0.000000 83.588615 41.070226 51.193005 -69.128947 59.169682 -44.961493 -0.462302 0.564743 -7.363074 7.125000 0.000000 0.000000 
-1.326484 18.442743 4.385457 -128.248130 -77.605232 125.913649 5.480063 -9.358364 -81.702108 8.817811 17.556835 54.453994 -137.500351 -17.712420 -168.614929 0.003200 0.366400 1.006700 33.733289 3.274022 0.663164 -0.219541 -7.394337 19.427141 0.887624 -6.261926 0.433027 -0.819300 -5.775500 16.134500 1.300542 4.559002 -4.992149 0.853644 1.812890 -3.708905 4.899940 -5.166987 10.653744 1.931100 -2.410500 9.623000 -69.981084 34.914122 37.675289 32.933849 -48.122093 -12.709754 -0.268305 0.848085 0.810653 -7.125000 0.000000 0.000000 83.153635 41.542179 50.928702 -69.018092 59.131150 -44.867560 -0.461458 0.565979 -7.230452 7.125000 0.000000 0.000000 
-1.473984 18.447812 4.386572 -128.708028 -77.511099 126.280912 5.643023 -9.558919 -82.721379 9.016322 17.681669 55.089432 -137.428747 -18.007205 -168.805763 0.001100 0.217800 0.598400 33.720912 3.040186 1.217479 -0.223751 -7.387802 19.423320 0.856000 -6.115361 0.335996 -0.757900 -5.559900 15.512700 1.301585 4.649543 -4.980385 0.861796 1.858947 -3.710456 4.876678 -5.152953 10.637790 1.924600 -2.407200 9.625700 -69.971586 35.195356 37.322787 32.926184 -48.118162 -12.727045 -0.264861 0.845110 0.758254 -7.125000 0.000000 0.000000 82.756205 41.897642 50.658641 -68.966145 59.107905 -44.825602 -0.460845 0.567094 -7.125002 7.125000 0.000000 0.000000 
-1.621585 18.450245 4.387586 -129.132116 -77.399893 126.635175 5.778443 -9.705996 -83.560644 9.239084 17.814903 55.798713 -137.371341 -18.249638 -168.949528 0.000100 0.054700 0.150200 33.717445 2.862515 1.756175 -0.231044 -7.391595 19.450814 0.811116 -5.910684 0.250239 -0.698400 -5.342000 14.886700 1.304169 4.735291 -4.968112 0.870758 1.902635 -3.694794 4.858100 -5.137967 10.619878 1.918900 -2.402400 9.626000 -69.990564 35.402034 37.009306 32.893797 -48.098199 -12.725640 -0.261772 0.843316 0.706152 -7.125000 0.000000 0.000000 82.391458 42.142902 50.383042 -68.966032 59.098149 -44.828724 -0.460474 0.567891 -7.054629 7.125000 0.000000 0.000000 
